<?xml version="1.0" encoding="utf-8"?>
<!-- Generator: Adobe Illustrator 23.0.1, SVG Export Plug-In . SVG Version: 6.00 Build 0)  -->
<svg version="1.1" id="Layer_1" xmlns="http://www.w3.org/2000/svg" xmlns:xlink="http://www.w3.org/1999/xlink" x="0px" y="0px"
	 viewBox="0 0 956 550" width="416.915077466" height="239.857000634" style="enable-background:new 0 0 956 550;" xml:space="preserve">
<style type="text/css">
	.st0{fill:#FAA74A;}
	.st1{fill:#1E3860;}
</style>
<g id="Logos">
	<g>
		<g>
			<path class="st0" d="M311.1,127.3c-3.4-3.4-9.2-3.4-12.6,0l-5.2,5.2c-3.4,3.4-3.4,9.2,0,12.6l82.1,82.1l-82.1,82.1
				c-3.4,3.4-3.4,9.2,0,12.6l5.2,5.2c3.4,3.4,9.2,3.4,12.6,0l99.8-99.8L311.1,127.3z"/>
		</g>
		<g>
			<g>
				<path class="st1" d="M492.9,132.5l-5.2-5.2c-3.4-3.4-9.2-3.4-12.6,0L405.6,197l17.8,17.8l69.7-69.5
					C496.5,141.5,496.5,136,492.9,132.5z"/>
			</g>
		</g>
		<g>
			<path class="st1" d="M860,215.4c0,0-9.4-2.3-14.6-4.1c-16.4-5.6-31.5-14.4-31.5-30.6c0-18.5,16-31,39.8-31
				c15.8,0,28.3,4.5,36.9,13.3l2.9,2.9c3.4,3.4,9.2,3.4,12.6,0l5.2-5.2c3.4-3.4,3.4-9.2,0-12.6c-1.4-1.4-2.9-2.9-2.9-2.9
				c-13.9-13.1-33.1-20.4-54.7-20.4c-19.8,0-35.7,5.2-48.8,16c-12.4,10.6-18.7,24.1-18.7,40.3c0,39.4,36.7,49.2,69.3,57.8l1.1,0.2
				c28.5,6.7,42.9,18,42.9,33.7c0,19.6-16.4,31.3-43.9,31.3c-17.3,0-32.4-5.8-42.7-16l-3.1-3.1c-3.4-3.4-9.2-3.4-12.6,0l-6.3,6.3
				c-3.4,3.4-3.4,9.2,0,12.6l3.1,3.1l0,0c14.8,14.6,36.2,22.5,61.6,22.5c21.1,0,38-5.2,51.9-15.8c13.1-10.3,20-24,20-41.1
				C927.5,236.3,895.4,223.5,860,215.4z"/>
		</g>
		<g>
			<g>
				<path class="st1" d="M492.9,321.8l-5.2,5.2c-3.4,3.4-9.2,3.4-12.6,0l-69.5-69.7l17.8-17.8l69.7,69.5
					C496.5,312.6,496.5,318.2,492.9,321.8z"/>
			</g>
		</g>
		<g>
			<path class="st1" d="M629.5,149.8c42.7,0,77.3,34.8,77.3,77.3s-34.8,77.3-77.3,77.3c-42.7,0-77.3-34.8-77.3-77.3
				S587,149.8,629.5,149.8 M629.5,124.6c-56.5,0-102.5,45.9-102.5,102.5s45.9,102.5,102.5,102.5c56.5,0,102.5-45.9,102.5-102.5
				S686,124.6,629.5,124.6L629.5,124.6z"/>
		</g>
		<g>
			<path class="st1" d="M224.6,124.6h-7.4c-4.9,0-8.8,4-8.8,8.8v26.3c-18.7-21.6-46.5-35.3-77.3-35.3
				c-56.5,0-102.5,45.9-102.5,102.5s45.9,102.5,102.5,102.5c30.8,0,58.5-13.7,77.3-35.3v26.3c0,4.9,4,8.8,8.8,8.8h7.4
				c4.9,0,8.8-4,8.8-8.8V133.6C233.4,128.6,229.5,124.6,224.6,124.6z M208.2,227.6c-0.2,42.5-34.8,76.9-77.3,76.9
				c-42.7,0-77.3-34.8-77.3-77.3c0-42.7,34.8-77.3,77.3-77.3s77.1,34.4,77.3,76.9V227.6z"/>
		</g>
		<g>
			<path class="st1" d="M629.6,384.9c4-0.5,9.7-1.1,13.9-1.1c13.1,0,20.9,4.7,20.9,15.3c0,6.8-4.5,11.3-10.8,12.4
				c7.9,0.7,13.1,5.2,13.1,13.3c0,9.7-7,16-24.3,16c-4.5,0-9.4-0.5-13-1.1v-54.9H629.6z M638.8,408.3h4.5c7.7,0,11.7-2.9,11.7-8.6
				c0-5.4-4.1-7.9-11-7.9c-1.6,0-3.8,0.2-5.2,0.4V408.3z M638.8,432.6c1.8,0.2,3.8,0.4,4.9,0.4c8.8,0,13.5-2.9,13.5-8.6
				c0-5.9-4.9-8.3-12.4-8.3h-5.9V432.6z"/>
			<path class="st1" d="M711.9,426.8l-4.9,13H697l21.4-55.1h11.5l21.6,55.1h-10.3l-4.9-13H711.9z M724.4,393.7l-9.5,25.4h18.9
				L724.4,393.7z"/>
			<path class="st1" d="M823.1,425.6v-40.9h9.2v55.1h-9.2l-28.3-40.3v40.3h-9.2v-55.1h9.7L823.1,425.6z"/>
			<path class="st1" d="M872.4,384.7h9.5v55.1h-9.5V384.7z M903.4,384.7h11.3l-21.6,27.2l23.1,28.1h-11.5l-22.3-27.2L903.4,384.7z"
				/>
		</g>
	</g>
</g>
</svg>
